<svg xmlns="http://www.w3.org/2000/svg" xmlns:xlink="http://www.w3.org/1999/xlink" fill="none" version="1.1" width="24" height="24" viewBox="0 0 24 24"><defs><clipPath id="master_svg0_1_18"><rect x="0" y="0" width="24" height="24" rx="0"/></clipPath></defs><g clip-path="url(#master_svg0_1_18)"><g><path d="M1,4.5L1,19.5Q1,19.5985,1.019215,19.6951Q1.03843,19.7917,1.076121,19.8827Q1.113812,19.9737,1.16853,20.0556Q1.223249,20.1375,1.2928929999999998,20.2071Q1.362537,20.276699999999998,1.44443,20.3315Q1.526322,20.386200000000002,1.617317,20.4239Q1.7083110000000001,20.4616,1.80491,20.480800000000002Q1.9015086,20.5,2,20.5L22,20.5Q22.0985,20.5,22.1951,20.480800000000002Q22.2917,20.4616,22.3827,20.4239Q22.4737,20.386200000000002,22.5556,20.3315Q22.6375,20.276699999999998,22.7071,20.2071Q22.7767,20.1375,22.8315,20.0556Q22.8862,19.9737,22.9239,19.8827Q22.9616,19.7917,22.9808,19.6951Q23,19.5985,23,19.5L23,4.5Q23,4.4015086,22.9808,4.30491Q22.9616,4.208311,22.9239,4.117317Q22.8862,4.026322,22.8315,3.94443Q22.7767,3.862537,22.7071,3.792893Q22.6375,3.723249,22.5556,3.66853Q22.4737,3.6138120000000002,22.3827,3.576121Q22.2917,3.53843,22.1951,3.519215Q22.0985,3.5,22,3.5L2,3.5Q1.9015086,3.5,1.80491,3.519215Q1.7083110000000001,3.53843,1.617317,3.576121Q1.526322,3.6138120000000002,1.44443,3.66853Q1.362537,3.723249,1.2928929999999998,3.792893Q1.223249,3.862537,1.16853,3.94443Q1.113812,4.026322,1.076121,4.117317Q1.03843,4.208311,1.019215,4.30491Q1,4.4015086,1,4.5ZM3,18.5L3,5.5L21,5.5L21,18.5L3,18.5Z" fill-rule="evenodd" fill="#DEDEE1" fill-opacity="1"/></g><g><path d="M2.6,3.7L12,10.75L21.4,3.7Q21.5298,3.602633,21.6838,3.551317Q21.8377,3.5,22,3.5Q22.0985,3.5,22.1951,3.519215Q22.2917,3.53843,22.3827,3.576121Q22.4737,3.6138120000000002,22.5556,3.66853Q22.6375,3.723249,22.7071,3.792893Q22.7767,3.862537,22.8315,3.94443Q22.8862,4.026322,22.9239,4.117317Q22.9616,4.208311,22.9808,4.30491Q23,4.4015086,23,4.5Q23,4.616434,22.9732,4.729753Q22.9465,4.843072,22.8944,4.947213Q22.8424,5.051355,22.7678,5.140747Q22.6931,5.2301400000000005,22.6,5.3L12.6,12.8Q12.5355,12.84837,12.4641,12.88578Q12.3927,12.92319,12.3162,12.94868Q12.2398,12.97418,12.1602,12.98709Q12.0806,13,12,13Q11.91939,13,11.83982,12.98709Q11.76025,12.97418,11.68377,12.94868Q11.6073,12.92319,11.53589,12.88578Q11.46449,12.84837,11.4,12.8L1.4,5.3Q1.306853,5.2301400000000005,1.232248,5.140747Q1.157644,5.051355,1.1055730000000001,4.947214Q1.053502,4.843072,1.026751,4.729753Q1,4.616434,1,4.5Q1,4.4015086,1.019215,4.30491Q1.03843,4.208311,1.076121,4.117317Q1.113812,4.026322,1.16853,3.94443Q1.223249,3.862537,1.2928929999999998,3.792893Q1.362537,3.723249,1.44443,3.66853Q1.526322,3.6138120000000002,1.617317,3.576121Q1.7083110000000001,3.53843,1.80491,3.519215Q1.9015086,3.5,2,3.5Q2.162278,3.5,2.316228,3.551317Q2.4701779999999998,3.602633,2.6,3.7Z" fill-rule="evenodd" fill="#DEDEE1" fill-opacity="1"/></g><g><path d="M1,4.5L1,12Q1,12.09849,1.019215,12.19509Q1.03843,12.29169,1.076121,12.38268Q1.113812,12.47368,1.16853,12.55557Q1.223249,12.63746,1.2928929999999998,12.70711Q1.362537,12.77675,1.44443,12.83147Q1.526322,12.88619,1.617317,12.92388Q1.7083110000000001,12.96157,1.80491,12.98078Q1.9015086,13,2,13Q2.0984914,13,2.19509,12.98078Q2.291689,12.96157,2.382683,12.92388Q2.473678,12.88619,2.55557,12.83147Q2.637463,12.77675,2.707107,12.70711Q2.776751,12.63746,2.83147,12.55557Q2.8861879999999998,12.47368,2.923879,12.38268Q2.96157,12.29169,2.980785,12.19509Q3,12.09849,3,12L3,5.5L12,5.5Q12.0985,5.5,12.1951,5.480785Q12.2917,5.46157,12.3827,5.423879Q12.4737,5.386188,12.5556,5.33147Q12.6375,5.276751,12.7071,5.207107Q12.7767,5.137463,12.8315,5.05557Q12.8862,4.973678,12.9239,4.882683Q12.9616,4.791689,12.9808,4.69509Q13,4.5984914,13,4.5Q13,4.4015086,12.9808,4.30491Q12.9616,4.208311,12.9239,4.117317Q12.8862,4.026322,12.8315,3.94443Q12.7767,3.862537,12.7071,3.792893Q12.6375,3.723249,12.5556,3.66853Q12.4737,3.6138120000000002,12.3827,3.576121Q12.2917,3.53843,12.1951,3.519215Q12.0985,3.5,12,3.5L2,3.5Q1.9015086,3.5,1.80491,3.519215Q1.7083110000000001,3.53843,1.617317,3.576121Q1.526322,3.6138120000000002,1.44443,3.66853Q1.362537,3.723249,1.2928929999999998,3.792893Q1.223249,3.862537,1.16853,3.94443Q1.113812,4.026322,1.076121,4.117317Q1.03843,4.208311,1.019215,4.30491Q1,4.4015086,1,4.5Z" fill-rule="evenodd" fill="#DEDEE1" fill-opacity="1"/></g><g><path d="M12,3.5L22,3.5Q22.0985,3.5,22.1951,3.519215Q22.2917,3.53843,22.3827,3.576121Q22.4737,3.6138120000000002,22.5556,3.66853Q22.6375,3.723249,22.7071,3.792893Q22.776699999999998,3.862537,22.8315,3.94443Q22.886200000000002,4.026322,22.9239,4.117317Q22.9616,4.208311,22.980800000000002,4.30491Q23,4.4015086,23,4.5L23,12Q23,12.09849,22.980800000000002,12.19509Q22.9616,12.29169,22.9239,12.38268Q22.886200000000002,12.47368,22.8315,12.55557Q22.776699999999998,12.63746,22.7071,12.70711Q22.6375,12.77675,22.5556,12.83147Q22.4737,12.88619,22.3827,12.92388Q22.2917,12.96157,22.1951,12.98078Q22.0985,13,22,13Q21.901510000000002,13,21.80491,12.98078Q21.70831,12.96157,21.61732,12.92388Q21.52632,12.88619,21.44443,12.83147Q21.36254,12.77675,21.29289,12.70711Q21.22325,12.63746,21.16853,12.55557Q21.11381,12.47368,21.07612,12.38268Q21.038429999999998,12.29169,21.01921,12.19509Q21,12.09849,21,12L21,5.5L12,5.5Q11.9015086,5.5,11.80491,5.480785Q11.708311,5.46157,11.617317,5.423879Q11.526322,5.386188,11.44443,5.33147Q11.362537,5.276751,11.292893,5.207107Q11.223249,5.137463,11.16853,5.05557Q11.113812,4.973678,11.076121,4.882683Q11.03843,4.791689,11.019214999999999,4.69509Q11,4.5984914,11,4.5Q11,4.4015086,11.019214999999999,4.30491Q11.03843,4.208311,11.076121,4.117317Q11.113812,4.026322,11.16853,3.94443Q11.223249,3.862537,11.292893,3.792893Q11.362537,3.723249,11.44443,3.66853Q11.526322,3.6138120000000002,11.617317,3.576121Q11.708311,3.53843,11.80491,3.519215Q11.9015086,3.5,12,3.5Z" fill-rule="evenodd" fill="#DEDEE1" fill-opacity="1"/></g></g></svg>