<svg xmlns="http://www.w3.org/2000/svg" xmlns:xlink="http://www.w3.org/1999/xlink" fill="none" version="1.1" width="24" height="24" viewBox="0 0 24 24"><defs><clipPath id="master_svg0_1_08"><rect x="0" y="0" width="24" height="24" rx="0"/></clipPath></defs><g clip-path="url(#master_svg0_1_08)"><g><path d="M5.74318,14.71970205078125Q7.3451699999999995,15.92110205078125,9.70445,16.317202050781248Q9.78668,16.33100205078125,9.870049999999999,16.33100205078125Q9.96854,16.33100205078125,10.06514,16.31180205078125Q10.16174,16.292602050781248,10.25273,16.25490205078125Q10.34373,16.21720205078125,10.42562,16.16250205078125Q10.50751,16.107802050781252,10.57716,16.03820205078125Q10.646799999999999,15.96850205078125,10.70152,15.88660205078125Q10.75624,15.80470205078125,10.79393,15.71370205078125Q10.831620000000001,15.62270205078125,10.85083,15.52610205078125Q10.870049999999999,15.42950205078125,10.870049999999999,15.33100205078125Q10.870049999999999,15.24300205078125,10.85468,15.15640205078125Q10.839310000000001,15.06970205078125,10.80904,14.98710205078125Q10.77877,14.90450205078125,10.734539999999999,14.82840205078125Q10.69031,14.75230205078125,10.63346,14.68510205078125Q10.57662,14.61800205078125,10.50892,14.56170205078125Q10.441220000000001,14.50550205078125,10.364740000000001,14.46200205078125Q10.28825,14.41840205078125,10.20535,14.38890205078125Q10.122440000000001,14.35940205078125,10.03565,14.34490205078125Q8.15601,14.02920205078125,6.94312,13.11960205078125Q6.03393,12.43772205078125,5.5118100000000005,11.45484205078125Q5,10.49135205078125,5,9.50000205078125Q5,8.176912050781251,5.92945,7.02538205078125Q6.210039999999999,6.67775205078125,6.25305,5.949992050781249Q6.269550000000001,5.67079205078125,6.26943,4.98686205078125Q6.26929,4.24649205078125,6.29659,3.80233205078125Q6.40155,3.86376205078125,6.518470000000001,3.9340620507812503Q7.38138,4.4528520507812495,7.8619900000000005,4.63640205078125Q8.82208,5.00306205078125,9.67309,4.78633205078125Q10.797329999999999,4.50000205078125,12,4.50000205078125Q13.38288,4.50000205078125,14.6524,4.875902050781249Q15.4032,5.09819205078125,16.5015,4.65558205078125Q16.9814,4.46223205078125,17.9084,3.95977205078125Q17.8823,4.17299205078125,17.846899999999998,4.42965205078125Q17.7329,5.25529205078125,17.7123,5.61127205078125Q17.6592,6.52905205078125,18.027,6.97213205078125Q19,8.14437205078125,19,9.50000205078125Q19,10.54902205078125,18.5476,11.49110205078125Q18.076999999999998,12.47120205078125,17.212400000000002,13.11960205078125Q16.1632,13.90650205078125,14.4721,14.25860205078125L14.4699,14.25900205078125L14.4687,14.25930205078125Q14.3849,14.27670205078125,14.3053,14.30810205078125Q14.2257,14.33950205078125,14.1526,14.38390205078125Q14.0795,14.42840205078125,14.015,14.48470205078125Q13.95048,14.54090205078125,13.89648,14.60730205078125Q13.84247,14.67370205078125,13.80053,14.74830205078125Q13.75859,14.82280205078125,13.72994,14.90350205078125Q13.70128,14.98410205078125,13.68674,15.06840205078125Q13.6722,15.15280205078125,13.6722,15.23830205078125Q13.6722,15.33680205078125,13.69141,15.43340205078125Q13.71063,15.53000205078125,13.74832,15.62100205078125Q13.78601,15.71200205078125,13.84073,15.79390205078125Q13.89545,15.87580205078125,13.96509,15.94550205078125Q14.0347,16.015102050781252,14.1166,16.06980205078125Q14.1985,16.124502050781253,14.2895,16.16220205078125Q14.3805,16.199902050781247,14.4771,16.219102050781252Q14.5737,16.23830205078125,14.6722,16.23830205078125Q14.775,16.23830205078125,14.8757,16.21740205078125L14.876,16.21740205078125L14.8774,16.21710205078125Q17.0061,15.77430205078125,18.412300000000002,14.71970205078125Q19.6682,13.77770205078125,20.3505,12.35684205078125Q21,11.00433205078125,21,9.50000205078125Q21,7.52491205078125,19.7039,5.866002050781249Q19.7043,5.80718205078125,19.709,5.726832050781249Q19.725,5.450132050781249,19.8281,4.70314205078125Q20.0013,3.44845805078125,19.9767,2.94746205078125Q19.9441,2.28674505078125,19.627499999999998,1.90620205078125Q19.311799999999998,1.52674405078125,18.825200000000002,1.47426305078125Q18.4598,1.43486205078125,18.087699999999998,1.6081900507812499Q17.7698,1.7562970507812499,17.0815,2.13271805078125Q15.4486,3.0258230507812502,15.2202,2.95820005078125Q13.67275,2.50000575078125,12,2.50000575078125Q10.54664,2.50000575078125,9.17951,2.84819305078125Q8.76813,2.95295805078125,7.54899,2.21999205078125Q6.801769999999999,1.7707590507812498,6.39478,1.59588005078125Q5.45942,1.19397205078125,4.8177520000000005,1.94348305078125Q4.498872,2.31595505078125,4.376601,2.98854105078125Q4.269173,3.57948205078125,4.269429,4.98722205078125Q4.269542,5.61193205078125,4.256537,5.8320020507812504Q4.253381,5.88539205078125,4.249724,5.92643205078125Q3,7.56383205078125,3,9.50000205078125Q3,10.98959205078125,3.745548,12.39309205078125Q4.476975,13.77000205078125,5.74318,14.71970205078125Z" fill-rule="evenodd" fill="#DEDEE1" fill-opacity="1"/></g><g><path d="M10.610280703125,16.00342065234375Q10.735680703125,15.86538865234375,10.802900703125,15.69143565234375Q10.870120703125,15.51748265234375,10.870120703125,15.33099365234375Q10.870120703125,15.23250225234375,10.850910703125,15.13590365234375Q10.831690703125,15.03930465234375,10.794000703125,14.94831065234375Q10.756310703125,14.85731565234375,10.701590703125,14.77542365234375Q10.646870703125,14.69353065234375,10.577230703125,14.62388665234375Q10.507580703125,14.55424265234375,10.425690703125,14.49952365234375Q10.343800703125,14.44480565234375,10.252800703125,14.40711465234375Q10.161810703125,14.36942365234375,10.065210703125,14.350208652343749Q9.968612703125,14.33099365234375,9.870120703125,14.33099365234375Q9.765578703125,14.33099365234375,9.663296703125,14.35261565234375Q9.561014703125,14.37423765234375,9.465415703125,14.41654665234375Q9.369816703125,14.45885565234375,9.285036703125,14.52002165234375Q9.200254703125,14.58118765234375,9.129957703125,14.65856665234375Q8.001220703125,15.901004652343751,8.001220703125,17.14729365234375L8.001220703125,21.50539365234375Q8.001220703125,21.60388365234375,8.020435703124999,21.70048365234375Q8.039650703125,21.79708365234375,8.077341703125,21.88807365234375Q8.115032703125,21.97907365234375,8.169750703125,22.06096365234375Q8.224469703125,22.14285365234375,8.294113703125,22.21250365234375Q8.363757703125,22.28214365234375,8.445650703125,22.33686365234375Q8.527542703125,22.39158365234375,8.618537703125,22.42927365234375Q8.709531703125,22.46696365234375,8.806130703125,22.48617365234375Q8.902729303125,22.50539365234375,9.001220703125,22.50539365234375Q9.099712103125,22.50539365234375,9.196310703125,22.48617365234375Q9.292909703125,22.46696365234375,9.383903703125,22.42927365234375Q9.474898703125,22.39158365234375,9.556790703125,22.33686365234375Q9.638683703125,22.28214365234375,9.708327703125,22.21250365234375Q9.777971703125,22.14285365234375,9.832690703125,22.06096365234375Q9.887408703125,21.97907365234375,9.925099703125,21.88807365234375Q9.962790703125,21.79708365234375,9.982005703125001,21.70048365234375Q10.001220703125,21.60388365234375,10.001220703125,21.50539365234375L10.001220703125,17.14729365234375Q10.001220703125,16.67383365234375,10.610280703125,16.00342065234375Z" fill-rule="evenodd" fill="#DEDEE1" fill-opacity="1"/></g><g><path d="M13.876700140625,15.844432802734374Q13.777168140625,15.713803802734375,13.724644140625,15.558201802734375Q13.672119140625,15.402600802734375,13.672119140625,15.238372802734375Q13.672119140625,15.139881402734375,13.691334140624999,15.043282802734375Q13.710549140625,14.946683802734375,13.748240140625,14.855689802734375Q13.785931140625,14.764694802734375,13.840649140625,14.682802802734376Q13.895368140625,14.600909802734375,13.965012140625,14.531265802734374Q14.034656140625,14.461621802734374,14.116549140625,14.406902802734376Q14.198441140625,14.352184802734374,14.289436140625,14.314493802734376Q14.380430140625,14.276802802734375,14.477029140625,14.257587802734374Q14.573627740625,14.238372802734375,14.672119140625,14.238372802734375Q14.787590140625,14.238372802734375,14.900023140625,14.264688802734375Q15.012456140625,14.291005802734375,15.115932140625,14.342253802734374Q15.219408140625,14.393500802734374,15.308481140625,14.466982802734375Q15.397555140625,14.540464802734375,15.467538140625,14.632312802734376Q16.495469140625,15.981411802734375,16.495469140625,17.178872802734375L16.495469140625,21.505422802734376Q16.495469140625,21.603912802734374,16.476249140625,21.700512802734373Q16.457039140625,21.797112802734375,16.419349140625002,21.888102802734373Q16.381659140625,21.979102802734374,16.326939140625,22.060992802734376Q16.272219140625,22.142882802734377,16.202579140625,22.212532802734376Q16.132929140625,22.282172802734376,16.051039140625,22.336892802734376Q15.969149140625,22.391612802734375,15.878149140625,22.429302802734377Q15.787159140625,22.466992802734374,15.690559140625,22.486202802734375Q15.593960140625,22.505422802734376,15.495469140625,22.505422802734376Q15.396978140625,22.505422802734376,15.300379140625001,22.486202802734375Q15.203780140625,22.466992802734374,15.112785140625,22.429302802734377Q15.021791140625,22.391612802734375,14.939899140625,22.336892802734376Q14.858006140625,22.282172802734376,14.788362140625,22.212532802734376Q14.718718340625,22.142882802734377,14.663999490625,22.060992802734376Q14.609280640625,21.979102802734374,14.571589140625,21.888102802734373Q14.533898140625,21.797112802734375,14.514684140625,21.700512802734373Q14.495469140625,21.603912802734374,14.495469140625,21.505422802734376L14.495469140625,17.178872802734375Q14.495469140625,16.656532802734375,13.876700140625,15.844432802734374Z" fill-rule="evenodd" fill="#DEDEE1" fill-opacity="1"/></g><g><path d="M3.122058,14.615295603515625Q4.27773,14.756860603515625,4.85511,15.709330603515625Q6.09783,17.759068603515626,6.9125499999999995,17.759068603515626L9.0012,17.759068603515626Q9.099689999999999,17.759068603515626,9.196290000000001,17.778288603515627Q9.29289,17.797498603515624,9.383880000000001,17.835188603515626Q9.474879999999999,17.872878603515623,9.55677,17.927598603515627Q9.63866,17.982318603515626,9.70831,18.051958603515626Q9.77795,18.121608603515625,9.83267,18.203498603515627Q9.88739,18.285388603515624,9.925080000000001,18.376388603515625Q9.962769999999999,18.467378603515627,9.98198,18.563978603515626Q10.0012,18.660578603515624,10.0012,18.759068603515626Q10.0012,18.857558603515624,9.98198,18.954158603515626Q9.962769999999999,19.050758603515625,9.925080000000001,19.141748603515623Q9.88739,19.232748603515624,9.83267,19.314638603515625Q9.77795,19.396528603515627,9.70831,19.466178603515626Q9.63866,19.535818603515626,9.55677,19.590538603515625Q9.474879999999999,19.645258603515625,9.383880000000001,19.682948603515626Q9.29289,19.720638603515624,9.196290000000001,19.739858603515625Q9.099689999999999,19.759068603515626,9.0012,19.759068603515626L6.9125499999999995,19.759068603515626Q4.97152,19.759068603515626,3.144886,16.746208603515626Q3.0708301,16.624048603515625,2.879041,16.600476603515624L2.878638,16.600426603515626Q2.78849,16.589404603515625,2.701802,16.562322603515625Q2.615115,16.535240603515625,2.5347239999999998,16.492984603515627Q2.4543340000000002,16.450728603515625,2.382872,16.394681603515625Q2.31141,16.338634603515626,2.251213,16.270629603515626Q2.191017,16.202625603515624,2.144057,16.124889603515626Q2.0970969999999998,16.047153603515625,2.0649100000000002,15.962228603515625Q2.032723,15.877304603515626,2.016361,15.787971603515626Q2,15.698638003515626,2,15.607818603515625Q2,15.509327203515625,2.019215,15.412728603515625Q2.03843,15.316129603515625,2.076121,15.225135603515625Q2.1138120000000002,15.134140603515625,2.16853,15.052248603515626Q2.223249,14.970355603515625,2.292893,14.900711603515624Q2.362537,14.831067603515624,2.44443,14.776348603515626Q2.526322,14.721630603515624,2.617317,14.683939603515626Q2.708311,14.646248603515625,2.80491,14.627033603515624Q2.9015086,14.607818603515625,3,14.607818603515625Q3.0609063,14.607818603515625,3.121362,14.615210603515624L3.122058,14.615295603515625Z" fill-rule="evenodd" fill="#DEDEE1" fill-opacity="1"/></g></g></svg>