<svg xmlns="http://www.w3.org/2000/svg" xmlns:xlink="http://www.w3.org/1999/xlink" fill="none" version="1.1" width="24" height="24" viewBox="0 0 24 24"><defs><clipPath id="master_svg0_1_28"><rect x="0" y="0" width="24" height="24" rx="0"/></clipPath></defs><g clip-path="url(#master_svg0_1_28)"><g><path d="M9.8787419140625,17.156831396484375L17.3033619140625,9.732221396484375Q17.4439619140625,9.591571396484376,17.5201619140625,9.407801396484375Q17.596261914062502,9.224031396484374,17.596261914062502,9.025121396484375Q17.596261914062502,8.926631396484375,17.5770619140625,8.830031396484376Q17.5577619140625,8.733431396484374,17.5201619140625,8.642431396484376Q17.482461914062497,8.551441396484375,17.4276619140625,8.469551396484375Q17.3729619140625,8.387661396484376,17.3033619140625,8.318011396484374Q17.233661914062502,8.248371396484375,17.1517619140625,8.193651396484375Q17.0699619140625,8.138931396484375,16.978961914062502,8.101241396484376Q16.8879619140625,8.063551396484375,16.7913619140625,8.044331396484374Q16.6947619140625,8.025121396484375,16.596261914062502,8.025121396484375Q16.3973619140625,8.025121396484375,16.213561914062502,8.101241396484376Q16.029761914062497,8.177361396484375,15.8891619140625,8.318011396484374L8.464531914062501,15.742631396484375Q8.3180719140625,15.889131396484375,8.1109619140625,15.889131396484375Q7.9038519140625,15.889131396484375,7.7573919140625,15.742631396484375Q7.6109719140625,15.596231396484376,7.6109719140625,15.389131396484375Q7.6109719140625,15.181931396484375,7.7574219140625,15.035531396484375L16.596261914062502,6.196731396484375Q17.1820619140625,5.610931396484375,18.0104619140625,5.610931396484375Q18.838861914062498,5.610931396484375,19.4246619140625,6.196731396484375Q20.0104619140625,6.7824913964843745,20.0104619140625,7.610921396484375Q20.0104619140625,8.439371396484376,19.4246619140625,9.025181396484374L10.5858319140625,17.863931396484375Q9.5607119140625,18.889131396484373,8.1109619140625,18.889131396484373Q6.6612119140625,18.889131396484373,5.6360919140625,17.863931396484375Q4.6109619140625,16.838831396484373,4.6109619140625,15.389131396484375Q4.6109619140625,13.939341396484375,5.636081914062499,12.914231396484375L13.0606919140625,5.489605396484375Q13.2013419140625,5.348953396484375,13.2774619140625,5.165182396484375Q13.3535819140625,4.981412396484375,13.3535819140625,4.782499396484375Q13.3535819140625,4.684008396484375,13.3343719140625,4.587409496484375Q13.3151519140625,4.490810396484375,13.2774619140625,4.399816396484375Q13.2397719140625,4.308822396484375,13.1850519140625,4.226929396484375Q13.1303319140625,4.145037396484375,13.0606919140625,4.075393396484375Q12.9910519140625,4.005749396484375,12.9091519140625,3.951030396484375Q12.8272619140625,3.896311396484375,12.7362719140625,3.8586203964843753Q12.6452719140625,3.820929396484375,12.5486719140625,3.801714396484375Q12.4520719140625,3.782499396484375,12.3535819140625,3.782499396484375Q12.1546719140625,3.782499396484375,11.9709019140625,3.8586203964843753Q11.7871319140625,3.934741396484375,11.6464819140625,4.075393396484375L4.2218769140625,11.500011396484375Q2.6109619140625,13.110911396484376,2.6109619140625,15.389131396484375Q2.6109619140625,17.667231396484375,4.2218759140625,19.278131396484376Q5.8327819140625,20.889031396484373,8.1109619140625,20.889131396484373Q10.389141914062499,20.889131396484373,12.0000419140625,19.278131396484376L20.8388619140625,10.439361396484376Q22.0104619140625,9.267771396484374,22.0104619140625,7.610921396484375Q22.0104619140625,5.954071396484375,20.8388619140625,4.782508396484375Q19.6672619140625,3.610931396484375,18.0104619140625,3.610931396484375Q16.3535619140625,3.610931396484375,15.1820619140625,4.782511396484375L6.3431519140625,13.621341396484375Q5.6109719140625,14.353581396484374,5.6109719140625,15.389131396484375Q5.6109719140625,16.424631396484376,6.3431819140625,17.156831396484375Q7.0754219140625,17.889131396484373,8.1109619140625,17.889131396484373Q9.146501914062501,17.889131396484373,9.8787419140625,17.156831396484375Z" fill-rule="evenodd" fill="#DEDEE1" fill-opacity="1"/></g></g></svg>