<svg xmlns="http://www.w3.org/2000/svg" xmlns:xlink="http://www.w3.org/1999/xlink" fill="none" version="1.1" width="24" height="24" viewBox="0 0 24 24"><defs><clipPath id="master_svg0_1_35"><rect x="0" y="0" width="24" height="24" rx="0"/></clipPath></defs><g clip-path="url(#master_svg0_1_35)"><g><path d="M5.613149375,21.487518287109374C5.233698875,21.767469287109375,5.281148875,22.052919287109376,5.349449175,22.168069287109375C5.6494993749999995,22.674519287109376,10.497344375,22.491469287109375,11.896844375,22.333869287109376C13.296444375,22.491469287109375,18.144234375,22.674519287109376,18.444234375,22.168069287109375C18.512734375,22.052919287109376,18.559934374999997,21.767469287109375,18.180834375,21.487518287109374C17.737534375,21.160169287109376,17.035134375,20.896318287109374,16.486434375,20.732269287109375C15.405234375,21.646620287109375,13.726244375,22.258869287109373,11.896844375,22.258869287109373C10.067704375,22.258869287109373,8.388604375,21.646620287109375,7.307594375,20.732269287109375C6.758544375,20.896318287109374,6.056249375,21.160169287109376,5.613149375,21.487518287109374Z" fill="#DEDEE1" fill-opacity="1"/></g><g><path d="M11.90719625,11.2957C14.92800625,11.27525,17.34890625,10.69045,18.169306249999998,10.4663Q18.36480625,10.41275,18.469306250000002,10.31685C18.47010625,10.28925,18.481706250000002,9.825,18.481706250000002,9.58565C18.481706250000002,5.5526,16.57800625,1.500144958,11.89609625,1.5C7.21419625,1.500144958,5.31034625,5.55275,5.31034625,9.5855C5.31034625,9.82515,5.32199625,10.28925,5.322896249999999,10.3167Q5.40799625,10.40645,5.56369625,10.44995C6.32114625,10.6607,8.78764625,11.27455,11.88489625,11.2957L11.90719625,11.2957ZM20.11590625,14.6553C19.92860625,14.0527,19.67310625,13.35,19.41420625,12.6752Q19.26530625,12.6568,19.18990625,12.6785C16.867406250000002,13.3532,14.05230625,13.7833,11.90719625,13.7573L11.88489625,13.7573C9.75174625,13.7829,6.95574625,13.3579,4.64103625,12.6897Q4.55259625,12.6643,4.37804625,12.6752C4.11913625,13.35,3.86358325,14.0529,3.67633825,14.6553C2.78329825,17.5291,3.07270861,18.7182,3.29293825,18.7447Q3.7656532499999997,18.802,5.13274625,16.581699999999998C5.13274625,18.8379,7.16969625,22.302,11.83424625,22.3339L11.95799625,22.3339C16.622406249999997,22.302,18.65930625,18.8379,18.65930625,16.581699999999998Q20.02660625,18.802,20.49930625,18.7449C20.71940625,18.7182,21.00880625,17.5289,20.11590625,14.6553Z" fill="#DEDEE1" fill-opacity="1"/></g><g><path d="M10.23021052734375,7.4579996484375C9.59505852734375,7.4867496484375,9.05240822734375,6.7632996484375,9.01825809734375,5.8433996484375C8.98385812734375,4.9232316484375005,9.47040852734375,4.1539568484375,10.10556052734375,4.1252017024375C10.74001052734375,4.0967416484375,11.28246052734375,4.8199016484375,11.316910527343751,5.7400996484375C11.35166052734375,6.6603996484375,10.86491052734375,7.4296996484375,10.23021052734375,7.4579996484375ZM14.77391052734375,5.8433996484375C14.73991052734375,6.7631496484374996,14.197310527343749,7.4867496484375,13.56216052734375,7.4579996484375C12.92726052734375,7.4295496484375,12.44071052734375,6.6603996484375,12.475460527343749,5.7402496484375C12.50986052734375,4.8200466484375,13.05221052734375,4.0968918484375,13.68676052734375,4.1252017024375C14.32191052734375,4.1539568484375,14.80851052734375,4.9232316484375005,14.77391052734375,5.8433996484375Z" fill="#DEDEE1" fill-opacity="1"/></g><g><path d="M15.902503125,8.757132861328126C15.732903125,8.381332861328126,14.023453125,7.962432861328125,11.907403125,7.962432861328125L11.884603125,7.962432861328125C9.768403125,7.962432861328125,8.059103125,8.381332861328126,7.889353325,8.757282861328125C7.881353375,8.773982861328125,7.877103329,8.792282861328125,7.876953125,8.810832861328125C7.877253532,8.836782861328125,7.885403155,8.861982861328125,7.900303325,8.883232861328125C8.043353125,9.091482861328124,9.941353125,10.121832861328125,11.884603125,10.121832861328125L11.907403125,10.121832861328125C13.850503125,10.121832861328125,15.748503125,9.091782861328126,15.891553125,8.883232861328125C15.906553125,8.861932861328125,15.914703125,8.836582861328125,15.914903125,8.810532861328126C15.914753125,8.792082861328126,15.910503125,8.773882861328126,15.902503125,8.757132861328126Z" fill="#DEDEE1" fill-opacity="1"/></g><g><path d="M11.01094391015625,5.857078107421875C11.03999291015625,6.220478107421875,10.840643910156249,6.543325107421875,10.56639391015625,6.578475107421875C10.29159391015625,6.613825107421875,10.04564381015625,6.347875107421875,10.01649380015625,5.984478107421875C9.98774431015625,5.6207781074218754,10.18679391015625,5.297977907421875,10.46059391015625,5.262928007421875C10.73584391015625,5.227328307421875,10.98219391015625,5.493528107421875,11.01094391015625,5.857078107421875L11.01094391015625,5.857078107421875ZM12.75589291015625,5.978528107421875C12.81204291015625,5.877928107421875,13.19429291015625,5.349177807421875,13.985742910156251,5.541678107421875C14.19374291015625,5.592328107421875,14.28989291015625,5.666778107421875,14.31019291015625,5.695978107421875C14.340092910156251,5.739178107421875,14.348442910156251,5.800728107421875,14.317942910156251,5.883628107421875C14.257792910156251,6.047978107421875,14.13359291015625,6.043478107421875,14.064842910156251,6.011328107421875C14.02034291015625,5.990628107421875,13.46909291015625,5.623128107421875,12.96119291015625,6.171428107421875C12.92619291015625,6.208978107421875,12.863742910156251,6.221928107421875,12.80459291015625,6.177278107421875C12.74519291015625,6.132328107421875,12.72084291015625,6.041578107421875,12.75589291015625,5.978528107421875Z" fill="#DEDEE1" fill-opacity="1"/></g><g><path d="M11.9068559375,13.625140748046874L11.8845059375,13.625140748046874C10.4256559375,13.642640748046874,8.6568059375,13.449440748046875,6.9437059375,13.111691475046875C6.7971563375,13.960840748046875,6.7087063375,15.028241748046876,6.7846059375,16.301041748046874C6.9766559375,19.518141748046876,8.8872559375,21.540491748046875,11.836355937499999,21.569691748046875L11.9560559375,21.569691748046875C14.9053059375,21.540491748046875,16.8157359375,19.518141748046876,17.0080359375,16.301041748046874C17.0839359375,15.027991748046874,16.995335937500002,13.960840748046875,16.848735937500003,13.111541748046875C15.1354559375,13.449440748046875,13.3661559375,13.642791748046875,11.9068559375,13.625140748046874Z" fill="#DEDEE1" fill-opacity="1"/></g><g><path d="M7.751953125,13.355865478515625L7.751953125,16.521865478515625Q9.202203125,16.814315478515624,10.655253125,16.611765478515625L10.655253125,13.691514478515625C9.734753125,13.639414478515626,8.742053125,13.523415478515625,7.751953125,13.355865478515625Z" fill="#DEDEE1" fill-opacity="1"/></g><g><path d="M18.4692296875,10.316864013671875Q15.6481296875,11.207415013671875,11.9070996875,11.232664013671876L11.884749687500001,11.232664013671876C8.1498996875,11.207564013671876,5.3323996875,10.319764133671875,5.3227996875,10.316864013671875L4.3779296875,12.675014013671875C6.7411996875,13.387514013671876,9.6700496875,13.846664013671875,11.884749687500001,13.819964013671875L11.9070996875,13.819964013671875C14.1217996875,13.846664013671875,17.0505296875,13.387514013671876,19.4141296875,12.675014013671875L18.4692296875,10.316864013671875Z" fill="#DEDEE1" fill-opacity="1"/></g></g></svg>